<svg width="146" height="50" viewBox="0 0 146 50" fill="none" xmlns="http://www.w3.org/2000/svg">
<path d="M28.7409 15.7061C31.0474 13.3807 34.1759 12.2164 38.1267 12.2133C42.0774 12.2101 45.2154 13.387 47.5407 15.7437C49.8722 18.0942 51.038 21.2439 51.038 25.1928C51.038 29.1416 49.8722 32.2756 47.5407 34.5948C45.2123 36.9233 42.0743 38.0861 38.1267 38.0829C34.1791 38.0798 31.0505 36.9171 28.7409 34.5948C26.4345 32.2662 25.2829 29.1322 25.286 25.1928C25.286 21.1969 26.4376 18.0347 28.7409 15.7061ZM41.9205 18.0566C40.9603 16.1762 39.7443 15.236 38.2726 15.236C36.6534 15.236 35.337 16.1543 34.3234 17.9908C33.3099 19.8273 32.8031 22.228 32.8031 25.1928C32.8031 28.2014 33.2738 30.5911 34.2152 32.3618C35.1566 34.1325 36.4118 35.0179 37.9808 35.0179C39.5498 35.0179 40.8411 34.1215 41.8546 32.3289C42.8682 30.5362 43.375 28.2014 43.375 25.3244C43.3719 22.3534 42.8886 19.9276 41.9252 18.0472L41.9205 18.0566Z" fill="url(#paint0_linear_6_4)"/>
<path d="M77.0959 20.5623H77.2513C77.8653 18.2914 79.0703 16.2235 80.7439 14.5685C82.3694 13.0015 84.0953 12.218 85.9216 12.218C88.0993 12.218 89.6825 12.9388 90.6709 14.3804C91.6594 15.8221 92.1536 18.0613 92.1536 21.0982V33.0858C92.1536 34.6058 92.6353 35.3642 93.5987 35.361C94.4769 35.3436 95.3271 35.0491 96.0275 34.5196C96.1356 34.4445 96.2684 34.4134 96.3987 34.4326C96.529 34.4518 96.647 34.5199 96.7288 34.623C96.8088 34.7229 96.85 34.8483 96.8448 34.9761C96.8396 35.1039 96.7884 35.2256 96.7006 35.3187C95.9025 36.1928 94.9305 36.8909 93.8469 37.3685C92.7633 37.846 91.5918 38.0926 90.4073 38.0923C88.5245 38.0923 87.216 37.5987 86.4535 36.6115C85.6909 35.6243 85.3144 33.8943 85.3144 31.4169V20.487C85.3144 17.5536 84.351 16.0853 82.4243 16.0822C80.8051 16.0822 79.5389 17.4408 78.6257 20.1439C77.6657 23.1741 77.2047 26.3399 77.2607 29.5177C77.2718 30.768 77.4106 32.014 77.6749 33.2362C77.915 34.1655 78.3045 35.0498 78.8281 35.8547L78.8846 35.9299L79.0776 36.1696C79.1872 36.3064 79.2469 36.4763 79.2469 36.6515C79.2469 36.8266 79.1872 36.9966 79.0776 37.1333C79.008 37.2198 78.9198 37.2896 78.8196 37.3376C78.7194 37.3856 78.6098 37.4106 78.4986 37.4107H72.3795C71.8552 37.4107 71.3524 37.2027 70.9816 36.8324C70.6109 36.4621 70.4026 35.9599 70.4026 35.4363V20.487C70.4026 17.5536 69.4392 16.0853 67.5125 16.0822C65.8933 16.0822 64.6271 17.4408 63.714 20.1439C62.7523 23.1738 62.2897 26.3396 62.3442 29.5177C62.3139 30.7663 62.4292 32.0142 62.6878 33.2362C62.9358 34.1819 63.3554 35.0742 63.9258 35.8688L63.9634 35.9205L64.1658 36.1696C64.2754 36.3064 64.3352 36.4763 64.3352 36.6515C64.3352 36.8266 64.2754 36.9966 64.1658 37.1333C64.0962 37.2198 64.0081 37.2896 63.9079 37.3376C63.8077 37.3856 63.698 37.4106 63.5869 37.4107H53.4574C53.3067 37.412 53.1591 37.3678 53.034 37.2839C52.9088 37.2 52.812 37.0804 52.7561 36.9406C52.7217 36.841 52.7089 36.7353 52.7183 36.6304C52.7277 36.5255 52.7593 36.4238 52.8108 36.3319C52.8624 36.24 52.9328 36.16 53.0175 36.0972C53.1021 36.0344 53.1991 35.9902 53.3021 35.9675L53.5421 35.9158C54.1775 35.8252 54.7512 35.4872 55.1378 34.9756C55.3888 34.5493 55.5144 33.7016 55.5144 32.4323V17.6006C55.5144 16.8438 55.1849 16.463 54.5306 16.463H52.4878C52.3751 16.463 52.2654 16.4269 52.1748 16.3601C52.0841 16.2932 52.0173 16.1991 51.9841 16.0916V16.0446C51.9534 15.944 51.9535 15.8364 51.9846 15.7359C52.0156 15.6353 52.0761 15.5464 52.1583 15.4805C53.2273 14.6727 54.4171 14.0381 55.6838 13.6001C57.1407 13.0527 58.6836 12.7694 60.2402 12.7633C60.7909 12.7331 61.3369 12.8797 61.7982 13.1817C61.9834 13.3149 62.1324 13.4922 62.2318 13.6973C62.3313 13.9025 62.378 14.1292 62.3677 14.3569V16.8908C62.3689 17.0524 62.4227 17.2093 62.5212 17.3375C62.6196 17.4658 62.7573 17.5585 62.9133 17.6016C63.0693 17.6447 63.2351 17.6357 63.3855 17.5762C63.5359 17.5166 63.6628 17.4097 63.7469 17.2716C64.2929 16.3206 64.9572 15.4423 65.7238 14.6578C67.2928 13.0375 69.0658 12.2274 71.0428 12.2274C73.1201 12.2274 74.6389 12.8981 75.5991 14.2394C76.5593 15.5808 77.0583 17.6884 77.0959 20.5623Z" fill="url(#paint1_linear_6_4)"/>
<path d="M114.775 34.7922C115.901 34.2194 116.902 33.4302 117.722 32.4699C117.809 32.3698 117.93 32.306 118.062 32.2912C118.194 32.2764 118.326 32.3117 118.433 32.39L118.536 32.4699C118.648 32.5525 118.723 32.676 118.744 32.8134C118.765 32.9507 118.731 33.0909 118.649 33.2033C117.548 34.6599 116.135 35.8518 114.512 36.6914C112.692 37.634 110.669 38.1182 108.619 38.1017C106.44 38.1394 104.293 37.5744 102.416 36.4693C100.538 35.3642 99.0033 33.762 97.9809 31.84C96.894 29.7983 96.3449 27.5141 96.3852 25.2022C96.3852 21.2533 97.5887 18.1036 99.9955 15.7531C102.402 13.4026 105.606 12.2258 109.607 12.2227C112.431 12.2227 114.75 12.8934 116.564 14.2347C117.407 14.8136 118.093 15.5907 118.564 16.4975C119.034 17.4043 119.274 18.4128 119.261 19.434C119.285 20.5833 119.014 21.7196 118.476 22.7355C117.937 23.7514 117.148 24.6133 116.183 25.2398C114.131 26.6814 111.332 27.4022 107.786 27.4022C106.712 27.4081 105.64 27.3405 104.575 27.2001C104.495 27.1905 104.413 27.1996 104.337 27.2268C104.26 27.2539 104.191 27.2983 104.134 27.3566C104.078 27.4148 104.036 27.4853 104.011 27.5625C103.986 27.6398 103.98 27.7217 103.992 27.8018C104.306 30.0991 105.038 31.9387 106.19 33.3208C106.746 34.0365 107.46 34.6142 108.277 35.0089C109.093 35.4036 109.99 35.6046 110.897 35.5961C112.234 35.6225 113.559 35.3477 114.775 34.7922ZM105.088 17.5066C104.2 19.0235 103.756 21.1421 103.756 23.8624V24.403C103.763 24.4676 103.782 24.5303 103.814 24.587C103.845 24.6438 103.888 24.6933 103.94 24.7326C103.992 24.772 104.051 24.8001 104.114 24.8154C104.177 24.8307 104.243 24.8327 104.307 24.8214C104.745 24.8214 105.249 24.7697 105.809 24.7133C107.936 24.5127 109.57 23.9548 110.709 23.0397C111.261 22.6149 111.704 22.0653 112.002 21.436C112.3 20.8067 112.444 20.1157 112.422 19.4199C112.463 18.325 112.097 17.2537 111.396 16.4113C111.077 16.0286 110.675 15.7232 110.221 15.518C109.767 15.3128 109.272 15.2132 108.774 15.2266C107.202 15.2266 105.973 15.9866 105.088 17.5066Z" fill="url(#paint2_linear_6_4)"/>
<path d="M136.592 13.0312C137.677 12.947 138.767 13.0875 139.795 13.4441C140.822 13.8006 141.765 14.3654 142.564 15.103C143.362 15.8406 144 16.7351 144.436 17.7304C144.872 18.7256 145.097 19.8002 145.098 20.8866V37.4106C145.098 41.4065 143.945 44.506 141.638 46.7092C139.332 48.9124 136.128 50.0093 132.027 49.9999C129.494 49.9999 127.442 49.5189 125.87 48.5567C124.303 47.6165 123.516 46.3285 123.516 44.763C123.49 44.1614 123.583 43.5606 123.792 42.9956C124 42.4306 124.32 41.9127 124.731 41.4723C125.146 41.0525 125.644 40.7239 126.194 40.5077C126.743 40.2916 127.332 40.1926 127.922 40.2171H127.95C128.236 40.2179 128.517 40.2865 128.771 40.4171C129.025 40.5478 129.244 40.7368 129.411 40.9686C129.577 41.2005 129.686 41.4685 129.728 41.7506C129.771 42.0327 129.745 42.3208 129.654 42.5912C129.455 43.2235 129.358 43.8837 129.367 44.5468C129.349 45.0472 129.43 45.5463 129.606 46.0151C129.782 46.484 130.05 46.9133 130.393 47.2781C130.732 47.628 131.14 47.9033 131.592 48.0863C132.043 48.2693 132.528 48.3559 133.015 48.3405C136.561 48.3405 138.334 45.4556 138.334 39.6859V33.3866C138.334 33.2115 138.279 33.0409 138.177 32.8985C138.075 32.7561 137.931 32.649 137.765 32.5921C137.6 32.5352 137.42 32.5313 137.252 32.581C137.084 32.6307 136.936 32.7316 136.828 32.8695C136.269 33.596 135.613 34.2428 134.879 34.7922C133.377 35.9906 131.516 36.6526 129.593 36.6726C127.365 36.6726 125.719 35.9894 124.656 34.6229C123.592 33.2565 123.06 31.1818 123.06 28.3988V17.0694C123.06 16.3642 123.201 16.0069 122.542 16.0069H120.589C120.473 16.007 120.361 15.9694 120.269 15.8998C120.178 15.8301 120.111 15.7324 120.08 15.6215L120.047 15.4992C120.021 15.402 120.023 15.2995 120.052 15.2032C120.081 15.1068 120.137 15.0205 120.212 14.9539C121.277 14.1263 122.007 13.4901 123.291 13.0735C124.725 12.5396 126.241 12.2565 127.772 12.2367C128.33 12.209 128.88 12.3751 129.33 12.7068C129.514 12.8498 129.661 13.0342 129.76 13.245C129.859 13.4558 129.907 13.687 129.899 13.9197V29.2309C129.899 32.0515 130.786 33.4696 132.559 33.4853C134.281 33.4853 135.675 32.4479 136.738 30.3732C137.802 28.2985 138.334 25.5406 138.334 22.0995C138.364 20.5924 138.206 19.0874 137.863 17.6194C137.591 16.5228 137.101 15.4918 136.423 14.5872L136.188 14.2629C136.078 14.1171 136.019 13.9398 136.019 13.7575C136.019 13.5752 136.078 13.3979 136.188 13.2521C136.232 13.1934 136.289 13.1449 136.354 13.11C136.419 13.0752 136.491 13.0547 136.564 13.05L136.592 13.0312Z" fill="url(#paint3_linear_6_4)"/>
<path d="M8.50555 36.9688C7.42103 37.053 6.33078 36.9125 5.30323 36.5559C4.27568 36.1994 3.333 35.6346 2.53434 34.897C1.73569 34.1594 1.09831 33.2649 0.662184 32.2696C0.226062 31.2744 0.000618574 30.1998 0 29.1134V12.5894C0 8.59351 1.15321 5.49397 3.45964 3.29077C5.76607 1.08756 8.96997 -0.00934209 13.0713 5.99279e-05C15.6037 5.99279e-05 17.656 0.481126 19.2281 1.44327C20.7955 2.38347 21.5816 3.67155 21.5816 5.23698C21.6082 5.83856 21.5146 6.43941 21.306 7.00442C21.0975 7.56943 20.7784 8.08727 20.3672 8.52769C19.9523 8.94755 19.454 9.27611 18.9044 9.49227C18.3548 9.70843 17.766 9.80741 17.1758 9.78286H17.1476C16.8647 9.78088 16.5863 9.71244 16.3348 9.58309C16.0834 9.45375 15.8659 9.26711 15.7 9.03828C15.5341 8.80946 15.4245 8.54485 15.38 8.26587C15.3354 7.98689 15.3572 7.70135 15.4437 7.43235C15.6435 6.80003 15.7405 6.13975 15.7308 5.47673C15.7492 4.97631 15.668 4.47721 15.4918 4.00837C15.3157 3.53953 15.0481 3.11026 14.7047 2.74545C14.366 2.39549 13.9578 2.12018 13.5063 1.9372C13.0548 1.75423 12.5699 1.66764 12.0829 1.68301C8.53693 1.68301 6.76396 4.56787 6.76396 10.3376V16.6369C6.76422 16.812 6.81915 16.9826 6.92107 17.125C7.023 17.2674 7.16686 17.3745 7.33261 17.4314C7.49837 17.4883 7.67776 17.4922 7.84582 17.4425C8.01388 17.3928 8.16222 17.2919 8.2702 17.154C8.82911 16.4275 9.48473 15.7807 10.2189 15.2313C11.7213 14.0329 13.5821 13.3709 15.5049 13.3509C17.7297 13.3509 19.3756 14.0341 20.4425 15.4006C21.5094 16.767 22.0413 18.8417 22.0382 21.6247V32.9353C22.0382 33.6405 21.897 33.9978 22.5559 33.9978H24.5093C24.6246 33.9977 24.7368 34.0353 24.8286 34.1049C24.9204 34.1746 24.9868 34.2723 25.0177 34.3832L25.0506 34.5055C25.0767 34.6027 25.0751 34.7052 25.046 34.8015C25.0169 34.8979 24.9615 34.9842 24.8859 35.0508C23.8227 35.8867 23.0924 36.531 21.8075 36.9547C20.3731 37.4886 18.8572 37.7717 17.3265 37.7915C16.7683 37.8192 16.2178 37.6531 15.7684 37.3214C15.5845 37.1784 15.437 36.994 15.338 36.7832C15.239 36.5724 15.1913 36.3412 15.1989 36.1085V20.7691C15.1989 17.9485 14.3124 16.5382 12.5394 16.5382C10.8167 16.5382 9.42341 17.5756 8.35963 19.6503C7.29585 21.725 6.76396 24.4829 6.76396 27.9241C6.73359 29.4311 6.89171 30.9361 7.23466 32.4041C7.50725 33.5007 7.997 34.5317 8.675 35.4363L8.91035 35.7606C9.01995 35.9064 9.07921 36.0837 9.07921 36.266C9.07921 36.4483 9.01995 36.6256 8.91035 36.7714C8.86583 36.8301 8.80914 36.8786 8.74415 36.9135C8.67917 36.9483 8.60742 36.9688 8.53379 36.9735L8.50555 36.9688Z" fill="url(#paint4_linear_6_4)"/>
<defs>
<linearGradient id="paint0_linear_6_4" x1="145" y1="50" x2="78.4326" y2="-51.4595" gradientUnits="userSpaceOnUse">
<stop stop-color="#344054"/>
<stop offset="1" stop-color="#1D2939"/>
</linearGradient>
<linearGradient id="paint1_linear_6_4" x1="145" y1="50" x2="78.4326" y2="-51.4595" gradientUnits="userSpaceOnUse">
<stop stop-color="#344054"/>
<stop offset="1" stop-color="#1D2939"/>
</linearGradient>
<linearGradient id="paint2_linear_6_4" x1="145" y1="50" x2="78.4326" y2="-51.4595" gradientUnits="userSpaceOnUse">
<stop stop-color="#344054"/>
<stop offset="1" stop-color="#1D2939"/>
</linearGradient>
<linearGradient id="paint3_linear_6_4" x1="145" y1="50" x2="78.4326" y2="-51.4595" gradientUnits="userSpaceOnUse">
<stop stop-color="#344054"/>
<stop offset="1" stop-color="#1D2939"/>
</linearGradient>
<linearGradient id="paint4_linear_6_4" x1="145" y1="50" x2="78.4326" y2="-51.4595" gradientUnits="userSpaceOnUse">
<stop stop-color="#344054"/>
<stop offset="1" stop-color="#1D2939"/>
</linearGradient>
</defs>
</svg>
